<svg width="25" height="24" viewBox="0 0 25 24" xmlns="http://www.w3.org/2000/svg"><title>github-icon</title><path d="M12.304 0C5.509 0 0 5.508 0 12.304c0 5.436 3.525 10.048 8.414 11.675.615.114.84-.267.84-.592 0-.293-.01-1.263-.016-2.29-3.423.744-4.145-1.452-4.145-1.452-.56-1.423-1.366-1.8-1.366-1.8-1.117-.764.084-.749.084-.749 1.235.087 1.886 1.268 1.886 1.268 1.097 1.881 2.878 1.337 3.58 1.023.11-.795.43-1.338.782-1.645-2.733-.311-5.606-1.366-5.606-6.08 0-1.344.48-2.442 1.268-3.303-.128-.31-.55-1.562.119-3.256 0 0 1.033-.331 3.384 1.26a11.794 11.794 0 0 1 3.08-.413c1.045.004 2.099.141 3.082.414 2.348-1.592 3.38-1.261 3.38-1.261.67 1.694.249 2.946.12 3.256.79.861 1.267 1.959 1.267 3.302 0 4.726-2.878 5.766-5.618 6.071.441.382.835 1.13.835 2.278 0 1.647-.015 2.972-.015 3.377 0 .327.222.711.845.59 4.886-1.629 8.407-6.239 8.407-11.673C24.607 5.508 19.1 0 12.304 0" fill="#FFF"/></svg>