<svg id="Layer_1" data-name="Layer 1" xmlns="http://www.w3.org/2000/svg" viewBox="0 0 507.83 148.26"><defs><style>.cls-1{fill:#3359df;}</style></defs><title>Andela-master-landscape-logo-Blue</title><path class="cls-1" d="M449.16,281.31c-7.25,0-13.26,2.78-16.62,7.67v-4.76a1.46,1.46,0,0,0-1.53-1.53h-8a1.46,1.46,0,0,0-1.53,1.53v52.95a1.47,1.47,0,0,0,1.53,1.54h8a1.47,1.47,0,0,0,1.53-1.54V306c0-8.6,5.42-14.38,13.49-14.38,8.59,0,13.12,5.19,13.12,15v30.53a1.47,1.47,0,0,0,1.53,1.54h8a1.47,1.47,0,0,0,1.54-1.54v-33C470.24,290.06,462.16,281.31,449.16,281.31Z" transform="translate(-167.05 -224.44)"/><path class="cls-1" d="M562.65,281.18c-11.75,0-20.44,6-23.81,16.35-1.32,3.8-2,7.68-2,14.43a39,39,0,0,0,1.62,10.94l.11.35C541.81,333.72,551.1,340,563.28,340c9.8,0,18.42-3.79,23.65-10.38a1.4,1.4,0,0,0-.17-2.14l-5.14-4.65a1.56,1.56,0,0,0-2.27.29c-2.59,3-7.33,6.54-15.2,6.54-7.43,0-13.14-3.21-15.31-9.93a14.4,14.4,0,0,1-.57-2.9c0-.35.12-.47.47-.47h38a1.5,1.5,0,0,0,1.66-1.54c0-9.52-.69-13.54-1.89-17.25C583.05,287.14,574.36,281.18,562.65,281.18Zm-13.51,19c2-5.85,7.44-9.2,14.07-9.2s11.57,3.35,13.51,9.2a20.55,20.55,0,0,1,.86,6.66c0,.36-.68.48-1,.48H548.48c-.34,0-.47-.12-.47-.48A20.06,20.06,0,0,1,549.14,300.22Z" transform="translate(-167.05 -224.44)"/><path class="cls-1" d="M615.4,328.87H613c-4.18,0-5.73-1.73-5.73-6.36v-63.6a13,13,0,0,0,0-1.53h-9.52a1.47,1.47,0,0,0-1.54,1.53v64.23c0,11.26,4.47,16.06,14.94,16.06h4.26a1.47,1.47,0,0,0,1.54-1.53V330.4A1.47,1.47,0,0,0,615.4,328.87Z" transform="translate(-167.05 -224.44)"/><path class="cls-1" d="M673.54,330.39c-2.24,0-2.85-.62-3-3.31v-25.2c0-14.9-6.68-21.06-23.84-21.06-8.34,0-15.66,2.47-20.61,6.33a1.6,1.6,0,0,0-.3,2.1l3.38,5.76a1.42,1.42,0,0,0,2.16.21,23.46,23.46,0,0,1,14.37-4.56c11.72,0,14.08,4.51,14.12,11.69,0,.34-.12.46-.47.46H645.7c-15.51,0-23.71,6.51-23.71,18.83,0,11.29,7.84,18.32,20.45,18.32,7.84,0,14.1-2.59,17.41-7.13.3,4.65,1.73,6.34,7.68,6.34l7.35,0v-7.47A1.27,1.27,0,0,0,673.54,330.39Zm-28.59,0c-7.9,0-12.24-3.24-12.24-9.11,0-6.65,4.37-9.49,14.62-9.49h12c.35,0,.47.12.47.47v6.64C659.82,326.07,654.26,330.37,645,330.37Z" transform="translate(-167.05 -224.44)"/><path class="cls-1" d="M519.68,257.17a1.48,1.48,0,0,0-1.55,1.54v27.61c-2.76-3.28-9.12-5.2-16.31-5.2-10.68,0-19.11,5.58-22.26,15.08a38.92,38.92,0,0,0-2,14.82c.21,4.2.48,9.68,2.25,14.35,3.69,9.68,11.3,14.59,21.51,14.59,8.08,0,14.27-2.1,16.85-5.65V337a1.47,1.47,0,0,0,1.55,1.54h8a1.48,1.48,0,0,0,1.54-1.54V257.17Zm-1.38,58.17a15,15,0,0,1-14.87,15.15c-8.22,0-14.88-5.9-14.88-16.55v-1.69c0-.29,0-.59,0-.9s0-.83,0-1.21v-2.56c0-10.53,6.66-17.12,14.88-17.12A15,15,0,0,1,518.3,305.6Z" transform="translate(-167.05 -224.44)"/><path class="cls-1" d="M414.15,335.58,385.62,265c-.64-1.84-2.28-5-5.78-5s-5.12,3.13-5.76,5l-28.53,70.63s-1.1,2.39-.88,2.69a1.23,1.23,0,0,0,1,.45h8.76a2,2,0,0,0,1.88-1.44l7-17.17H396.3l7.05,17.17a2,2,0,0,0,1.89,1.44H414a1.23,1.23,0,0,0,1-.45C415.25,338,414.15,335.61,414.15,335.58Zm-34.29-26.29H367.58l12.26-29.77v0l12.28,29.77Z" transform="translate(-167.05 -224.44)"/><path class="cls-1" d="M250.25,253.77l-9.07-11.15-9.07,11.15-12.24-6.64L236,228c1.48-1.75,2.86-3.5,5.12-3.56h.05c2.25.06,3.63,1.81,5.11,3.56l16.17,19.13Z" transform="translate(-167.05 -224.44)"/><path class="cls-1" d="M219.87,350s14.67,17.34,16.17,19.13,2.86,3.49,5.11,3.55h.06c2.25-.06,3.63-1.81,5.11-3.55S262.49,350,262.49,350l-12.24-6.65-9.07,11.16-9.08-11.16Z" transform="translate(-167.05 -224.44)"/><path class="cls-1" d="M215.92,260.48,201.62,259l1.47,14.3-13.35,4s-1.9-22.63-2.09-25-.45-4.5,1.1-6.13h0s0,0,0,0h0c1.63-1.55,3.84-1.29,6.13-1.1l25,2.1Z" transform="translate(-167.05 -224.44)"/><path class="cls-1" d="M262.49,350l25,2.09c2.28.19,4.49.45,6.13-1.1h0v0l0,0h0c1.55-1.63,1.29-3.84,1.11-6.13s-2.1-25-2.1-25l-13.35,4,1.47,14.3-14.3-1.47Z" transform="translate(-167.05 -224.44)"/><path class="cls-1" d="M196.38,289.49l-11.15,9.07,11.15,9.08-6.64,12.23L170.61,303.7c-1.75-1.48-3.49-2.86-3.55-5.11h0v0h0c.06-2.26,1.8-3.63,3.55-5.12l19.13-16.16Z" transform="translate(-167.05 -224.44)"/><path class="cls-1" d="M292.62,319.87l19.13-16.17c1.75-1.48,3.49-2.85,3.56-5.11h0v0h0c-.07-2.25-1.82-3.63-3.56-5.12l-19.13-16.16L286,289.49l11.15,9.08L286,307.64Z" transform="translate(-167.05 -224.44)"/><path class="cls-1" d="M203.09,323.83l-1.47,14.3,14.3-1.48,4,13.36-25,2.09c-2.29.19-4.5.44-6.14-1.11h0l0,0,0,0h0c-1.55-1.64-1.29-3.84-1.1-6.13s2.09-25,2.09-25Z" transform="translate(-167.05 -224.44)"/><path class="cls-1" d="M292.62,277.26s1.9-22.64,2.09-25,.45-4.48-1.1-6.12h0l0,0v0h0c-1.64-1.54-3.85-1.28-6.13-1.11s-25,2.11-25,2.11l3.95,13.35,14.3-1.48-1.47,14.31Z" transform="translate(-167.05 -224.44)"/></svg>